<svg width="142" height="20" viewBox="0 0 142 20" fill="none" xmlns="http://www.w3.org/2000/svg">
<path d="M11.6973 11.5918C11.7441 11.5684 11.7871 11.5566 11.8262 11.5566C11.8691 11.5566 11.9023 11.5723 11.9258 11.6035C11.9492 11.6309 11.9609 11.666 11.9609 11.709C11.9609 11.7637 11.9395 11.8262 11.8965 11.8965C11.8535 11.9629 11.7871 12.0234 11.6973 12.0781C11.416 12.2422 11.1289 12.3906 10.8359 12.5234C10.5469 12.6562 10.2559 12.7832 9.96289 12.9043C9.72852 13.0098 9.48047 13.1133 9.21875 13.2148C8.95703 13.3125 8.68945 13.4004 8.41602 13.4785C8.14648 13.5527 7.87305 13.6133 7.5957 13.6602C7.32227 13.707 7.05664 13.7305 6.79883 13.7305C6.69336 13.7305 6.5918 13.7266 6.49414 13.7188C6.39648 13.707 6.30078 13.6895 6.20703 13.666C6.14844 13.8066 6.07617 13.9648 5.99023 14.1406C5.9082 14.3203 5.82227 14.4961 5.73242 14.668C5.64258 14.8438 5.55664 15.0059 5.47461 15.1543C5.39258 15.3066 5.32812 15.4238 5.28125 15.5059C5.21094 15.6699 5.09961 15.7891 4.94727 15.8633C4.79883 15.9375 4.64062 15.9746 4.47266 15.9746C4.38672 15.9746 4.30273 15.9609 4.2207 15.9336C4.14258 15.9102 4.07227 15.875 4.00977 15.8281C3.94727 15.7812 3.89648 15.7246 3.85742 15.6582C3.82227 15.5918 3.80469 15.5156 3.80469 15.4297C3.80469 15.3789 3.8125 15.3398 3.82812 15.3125C3.875 15.207 3.94336 15.0605 4.0332 14.873C4.12305 14.6855 4.2207 14.4805 4.32617 14.2578C4.43164 14.0352 4.53711 13.8066 4.64258 13.5723C4.74805 13.334 4.83984 13.1152 4.91797 12.916C4.88672 12.8848 4.86719 12.8555 4.85938 12.8281C4.85547 12.7969 4.85352 12.7656 4.85352 12.7344C4.85352 12.6758 4.875 12.6172 4.91797 12.5586C4.96094 12.5 5.03125 12.4375 5.12891 12.3711C5.28516 12.0586 5.44141 11.752 5.59766 11.4512C5.75391 11.1465 5.89844 10.8633 6.03125 10.6016C6.16406 10.3398 6.2793 10.1055 6.37695 9.89844C6.47852 9.69141 6.55078 9.5293 6.59375 9.41211C6.33984 9.4082 6.10742 9.36719 5.89648 9.28906C5.68555 9.20703 5.50391 9.09766 5.35156 8.96094C5.20312 8.82031 5.08594 8.6543 5 8.46289C4.91797 8.27148 4.87695 8.06055 4.87695 7.83008C4.87695 7.52148 4.9375 7.24023 5.05859 6.98633C5.18359 6.73242 5.3457 6.51562 5.54492 6.33594C5.74414 6.15625 5.96875 6.01758 6.21875 5.91992C6.47266 5.81836 6.72656 5.76758 6.98047 5.76758C7.32031 5.76758 7.5957 5.82422 7.80664 5.9375C8.01758 6.04688 8.18164 6.19141 8.29883 6.37109C8.41992 6.55078 8.5 6.75391 8.53906 6.98047C8.58203 7.20703 8.60352 7.43359 8.60352 7.66016C8.60352 7.80859 8.58203 7.95312 8.53906 8.09375C8.49609 8.23047 8.44922 8.35938 8.39844 8.48047C8.35156 8.59766 8.30664 8.70508 8.26367 8.80273C8.2207 8.89648 8.19922 8.97461 8.19922 9.03711V9.06641C8.38672 9.04297 8.62109 9.01953 8.90234 8.99609C9.1875 8.97266 9.5 8.94141 9.83984 8.90234C10.1797 8.86328 10.5332 8.8125 10.9004 8.75C11.2715 8.6875 11.6367 8.60742 11.9961 8.50977C12.3555 8.41211 12.6973 8.29297 13.0215 8.15234C13.3457 8.01172 13.6309 7.8418 13.877 7.64258C14.123 7.44336 14.3184 7.21094 14.4629 6.94531C14.6074 6.67969 14.6797 6.375 14.6797 6.03125C14.6797 5.78125 14.5781 5.55078 14.375 5.33984C14.1719 5.125 13.9004 4.93164 13.5605 4.75977C13.2207 4.58789 12.8281 4.4375 12.3828 4.30859C11.9414 4.17969 11.4824 4.07227 11.0059 3.98633C10.5332 3.90039 10.0586 3.83594 9.58203 3.79297C9.10938 3.74609 8.66992 3.72266 8.26367 3.72266C7.80664 3.72266 7.32031 3.73242 6.80469 3.75195C6.28906 3.76758 5.77734 3.80469 5.26953 3.86328C4.76562 3.92188 4.28125 4.00977 3.81641 4.12695C3.35547 4.24414 2.94727 4.4043 2.5918 4.60742C2.24023 4.80664 1.95898 5.05469 1.74805 5.35156C1.53711 5.64844 1.43164 6.00781 1.43164 6.42969C1.43164 6.54297 1.48633 6.62695 1.5957 6.68164C1.70508 6.73242 1.8418 6.76953 2.00586 6.79297C2.16992 6.81641 2.34766 6.83594 2.53906 6.85156C2.73047 6.86328 2.9082 6.88867 3.07227 6.92773C3.23633 6.96289 3.37305 7.01953 3.48242 7.09766C3.5918 7.17578 3.64648 7.29102 3.64648 7.44336C3.64648 7.50977 3.57422 7.56055 3.42969 7.5957C3.28516 7.62695 3.10156 7.64258 2.87891 7.64258C2.71875 7.64258 2.54688 7.63281 2.36328 7.61328C2.17969 7.59375 1.99609 7.56445 1.8125 7.52539C1.62891 7.48242 1.45117 7.42969 1.2793 7.36719C1.11133 7.30469 0.962891 7.23047 0.833984 7.14453C0.705078 7.05469 0.601562 6.95312 0.523438 6.83984C0.445312 6.72656 0.40625 6.59961 0.40625 6.45898C0.40625 6.09961 0.480469 5.78125 0.628906 5.50391C0.78125 5.22266 0.986328 4.97461 1.24414 4.75977C1.50586 4.54102 1.8125 4.35547 2.16406 4.20312C2.51562 4.04688 2.89062 3.91602 3.28906 3.81055C3.69141 3.70117 4.10742 3.61328 4.53711 3.54688C4.9707 3.48047 5.39844 3.42969 5.82031 3.39453C6.24609 3.35547 6.6543 3.33008 7.04492 3.31836C7.43945 3.30664 7.79883 3.30078 8.12305 3.30078C8.49805 3.30078 8.89648 3.31055 9.31836 3.33008C9.74414 3.3457 10.1758 3.375 10.6133 3.41797C11.0508 3.46094 11.4844 3.51758 11.9141 3.58789C12.3477 3.6582 12.7617 3.74609 13.1562 3.85156C13.5508 3.95312 13.916 4.07422 14.252 4.21484C14.5918 4.35156 14.8848 4.50977 15.1309 4.68945C15.3809 4.86914 15.5762 5.07227 15.7168 5.29883C15.8574 5.52539 15.9277 5.77734 15.9277 6.05469C15.9277 6.38281 15.8535 6.68164 15.7051 6.95117C15.5566 7.2168 15.3535 7.45703 15.0957 7.67188C14.8418 7.88672 14.5391 8.07812 14.1875 8.24609C13.8398 8.41016 13.4648 8.55469 13.0625 8.67969C12.6602 8.80469 12.2383 8.91211 11.7969 9.00195C11.3594 9.0918 10.9219 9.16797 10.4844 9.23047C10.0508 9.29297 9.62695 9.34375 9.21289 9.38281C8.79883 9.42188 8.41406 9.45312 8.05859 9.47656C7.98438 9.56641 7.89258 9.7207 7.7832 9.93945C7.67773 10.1582 7.55859 10.418 7.42578 10.7188C7.29297 11.0156 7.15039 11.3418 6.99805 11.6973C6.8457 12.0488 6.68945 12.4023 6.5293 12.7578C6.63477 12.8867 6.76172 12.9805 6.91016 13.0391C7.0625 13.0938 7.22852 13.1211 7.4082 13.1211C7.61523 13.1211 7.83203 13.0996 8.05859 13.0566C8.28906 13.0137 8.51953 12.957 8.75 12.8867C8.98438 12.8125 9.21484 12.7305 9.44141 12.6406C9.67188 12.5469 9.89258 12.4531 10.1035 12.3594C10.3652 12.2461 10.6289 12.125 10.8945 11.9961C11.1602 11.8633 11.4277 11.7285 11.6973 11.5918ZM6.73438 9.05469C6.81641 8.87891 6.9082 8.69336 7.00977 8.49805C7.11523 8.29883 7.21289 8.09961 7.30273 7.90039C7.39648 7.70117 7.47461 7.50781 7.53711 7.32031C7.59961 7.13281 7.63086 6.95898 7.63086 6.79883C7.63086 6.58008 7.57617 6.4043 7.4668 6.27148C7.36133 6.13477 7.17188 6.06641 6.89844 6.06641C6.66797 6.06641 6.44727 6.10547 6.23633 6.18359C6.0293 6.26172 5.8457 6.375 5.68555 6.52344C5.5293 6.66797 5.4043 6.84375 5.31055 7.05078C5.2207 7.25781 5.17578 7.49023 5.17578 7.74805C5.17578 7.95898 5.21484 8.14648 5.29297 8.31055C5.37109 8.4707 5.47852 8.60742 5.61523 8.7207C5.75195 8.83008 5.91602 8.91406 6.10742 8.97266C6.29883 9.02734 6.50781 9.05469 6.73438 9.05469ZM18.2891 12.0781C17.6836 12.4258 17.1699 12.7285 16.748 12.9863C16.3262 13.2402 15.9668 13.4512 15.6699 13.6191C15.373 13.7832 15.1211 13.9062 14.9141 13.9883C14.7109 14.0664 14.5254 14.1055 14.3574 14.1055C14.1934 14.1055 14.0527 14.0859 13.9355 14.0469C13.8223 14.0078 13.7285 13.9551 13.6543 13.8887C13.5801 13.8223 13.5254 13.7422 13.4902 13.6484C13.459 13.5547 13.4434 13.4531 13.4434 13.3438C13.4434 13.2617 13.4609 13.1777 13.4961 13.0918C13.5312 13.0059 13.5742 12.918 13.625 12.8281C13.6797 12.7383 13.7363 12.6445 13.7949 12.5469C13.8535 12.4453 13.9082 12.3379 13.959 12.2246L14.8496 10.2324L11.7031 12.0781C11.6523 12.0977 11.6172 12.1074 11.5977 12.1074C11.5508 12.1074 11.5098 12.0918 11.4746 12.0605C11.4355 12.0293 11.416 11.9883 11.416 11.9375C11.416 11.8906 11.4375 11.8379 11.4805 11.7793C11.5195 11.7207 11.5938 11.6582 11.7031 11.5918L13.2207 10.707C13.4199 10.5898 13.6211 10.4727 13.8242 10.3555C14.0273 10.2383 14.2168 10.1289 14.3926 10.0273C14.5723 9.92578 14.7324 9.83594 14.873 9.75781C15.0176 9.67578 15.1289 9.61328 15.207 9.57031H15.9629C15.9785 9.58203 15.9922 9.60156 16.0039 9.62891C16.0156 9.65625 16.0215 9.69727 16.0215 9.75195C16.0215 9.85352 15.9922 9.99805 15.9336 10.1855C15.875 10.3691 15.8008 10.5762 15.7109 10.8066C15.625 11.0371 15.5273 11.2793 15.418 11.5332C15.3125 11.7832 15.2129 12.0215 15.1191 12.248C15.0254 12.4707 14.9277 12.6934 14.8262 12.916C14.7246 13.1387 14.623 13.3672 14.5215 13.6016C14.627 13.6016 14.793 13.5488 15.0195 13.4434C15.25 13.3379 15.5273 13.1953 15.8516 13.0156C16.1797 12.832 16.5488 12.6191 16.959 12.377C17.373 12.1309 17.8164 11.8691 18.2891 11.5918C18.3047 11.5762 18.334 11.5684 18.377 11.5684C18.4238 11.5684 18.4668 11.584 18.5059 11.6152C18.5488 11.6465 18.5703 11.6895 18.5703 11.7441C18.5703 11.791 18.5488 11.8438 18.5059 11.9023C18.4668 11.957 18.3945 12.0156 18.2891 12.0781ZM16.6719 7.51953C16.6953 7.51953 16.7383 7.52148 16.8008 7.52539C16.8672 7.52539 16.9414 7.5293 17.0234 7.53711C17.1055 7.54492 17.1914 7.55859 17.2812 7.57812C17.3711 7.59375 17.4531 7.61914 17.5273 7.6543C17.6016 7.68555 17.6641 7.72656 17.7148 7.77734C17.7656 7.82812 17.793 7.89062 17.7969 7.96484L16.9473 8.60938L16.5605 8.79102C16.4902 8.79102 16.4355 8.77148 16.3965 8.73242C16.3574 8.69336 16.3281 8.65234 16.3086 8.60938L16.6719 7.51953ZM35.6914 12.3359C35.7656 12.3008 35.8652 12.25 35.9902 12.1836C36.1152 12.1133 36.2422 12.041 36.3711 11.9668C36.5039 11.8926 36.627 11.8223 36.7402 11.7559C36.8535 11.6855 36.9375 11.6309 36.9922 11.5918C37.043 11.5527 37.0859 11.5332 37.1211 11.5332C37.1523 11.5332 37.1758 11.5605 37.1914 11.6152C37.2109 11.666 37.2207 11.7246 37.2207 11.791C37.2207 11.8027 37.2188 11.8145 37.2148 11.8262C37.2148 11.8379 37.2148 11.8496 37.2148 11.8613C37.207 11.9082 37.1445 11.9746 37.0273 12.0605C36.9102 12.1465 36.7598 12.2441 36.5762 12.3535C36.3965 12.459 36.1934 12.5742 35.9668 12.6992C35.7441 12.8203 35.5195 12.9414 35.293 13.0625C35.0703 13.1797 34.8574 13.291 34.6543 13.3965C34.4551 13.498 34.2871 13.584 34.1504 13.6543C33.8691 13.7988 33.5879 13.9395 33.3066 14.0762C33.0293 14.2129 32.7598 14.3262 32.498 14.416C32.084 14.5801 31.6133 14.7051 31.0859 14.791C30.5625 14.877 29.9648 14.9199 29.293 14.9199C28.7812 14.9199 28.3008 14.8555 27.8516 14.7266C27.4023 14.5977 27.0098 14.4141 26.6738 14.1758C26.3418 13.9414 26.0781 13.6602 25.8828 13.332C25.6914 13 25.5957 12.6328 25.5957 12.2305C25.5957 12.1758 25.5977 12.123 25.6016 12.0723C25.6055 12.0176 25.6113 11.9629 25.6191 11.9082C25.3965 11.9707 25.1953 12.0254 25.0156 12.0723C24.8398 12.1191 24.6719 12.1602 24.5117 12.1953C24.3555 12.2266 24.2012 12.25 24.0488 12.2656C23.9004 12.2812 23.7441 12.2891 23.5801 12.2891C23.2637 12.2891 22.9902 12.2559 22.7598 12.1895C22.5332 12.123 22.3457 12.0312 22.1973 11.9141C22.0527 11.793 21.9453 11.6504 21.875 11.4863C21.8086 11.3184 21.7754 11.1328 21.7754 10.9297C21.7754 10.6523 21.834 10.3496 21.9512 10.0215C22.0723 9.69336 22.2422 9.35547 22.4609 9.00781C22.6797 8.66016 22.9414 8.31055 23.2461 7.95898C23.5508 7.60352 23.8887 7.26172 24.2598 6.93359C24.6348 6.60547 25.0371 6.30078 25.4668 6.01953C25.8965 5.73438 26.3438 5.48633 26.8086 5.27539C27.2734 5.06445 27.75 4.89844 28.2383 4.77734C28.7305 4.65625 29.2227 4.5957 29.7148 4.5957C29.9609 4.5957 30.1699 4.61328 30.3418 4.64844C30.5137 4.67969 30.6523 4.7207 30.7578 4.77148C30.8672 4.82227 30.9473 4.87695 30.998 4.93555C31.0488 4.99023 31.0742 5.04102 31.0742 5.08789C31.0742 5.13867 31.0566 5.17578 31.0215 5.19922C30.9902 5.21875 30.9531 5.22852 30.9102 5.22852C30.8516 5.22852 30.7793 5.21289 30.6934 5.18164C30.6074 5.15039 30.498 5.11719 30.3652 5.08203C30.2363 5.04297 30.0781 5.00781 29.8906 4.97656C29.707 4.94531 29.4883 4.92969 29.2344 4.92969C28.8789 4.92969 28.5078 4.98633 28.1211 5.09961C27.7383 5.21289 27.3535 5.36914 26.9668 5.56836C26.584 5.76367 26.2051 5.99414 25.8301 6.25977C25.4551 6.52148 25.0996 6.80273 24.7637 7.10352C24.4277 7.4043 24.1152 7.7168 23.8262 8.04102C23.541 8.36523 23.2949 8.68555 23.0879 9.00195C22.8809 9.31836 22.7188 9.625 22.6016 9.92188C22.4844 10.2148 22.4258 10.4805 22.4258 10.7188C22.4258 10.875 22.4531 11.0176 22.5078 11.1465C22.5625 11.2754 22.6484 11.3867 22.7656 11.4805C22.8867 11.5703 23.0391 11.6406 23.2227 11.6914C23.4102 11.7422 23.6348 11.7676 23.8965 11.7676C24.0605 11.7676 24.2051 11.7617 24.3301 11.75C24.4551 11.7383 24.582 11.7207 24.7109 11.6973C24.8398 11.6699 24.9785 11.6367 25.127 11.5977C25.2793 11.5586 25.4609 11.5137 25.6719 11.4629C25.75 11.0371 25.8711 10.6133 26.0352 10.1914C26.2031 9.76953 26.4023 9.36719 26.6328 8.98438C26.8633 8.59766 27.1191 8.24023 27.4004 7.91211C27.6855 7.58008 27.9824 7.29297 28.291 7.05078C28.6035 6.80859 28.9219 6.61914 29.2461 6.48242C29.5742 6.3418 29.8965 6.27148 30.2129 6.27148C30.4473 6.27148 30.6758 6.31445 30.8984 6.40039C31.125 6.48242 31.3398 6.61328 31.543 6.79297C31.7461 6.97266 31.9355 7.20508 32.1113 7.49023C32.291 7.77539 32.4512 8.11914 32.5918 8.52148C32.9668 8.30664 33.3262 8.0918 33.6699 7.87695C34.0176 7.6582 34.3633 7.43164 34.707 7.19727C34.7656 6.70508 34.8301 6.23828 34.9004 5.79688C34.9746 5.35547 35.0742 4.93359 35.1992 4.53125C35.4297 3.83984 35.6836 3.24609 35.9609 2.75C36.2422 2.25 36.541 1.83984 36.8574 1.51953C37.1738 1.19531 37.5059 0.957031 37.8535 0.804688C38.2051 0.648438 38.5664 0.570312 38.9375 0.570312C39.1289 0.570312 39.3047 0.591797 39.4648 0.634766C39.6289 0.673828 39.7695 0.732422 39.8867 0.810547C40.0039 0.884766 40.0938 0.980469 40.1562 1.09766C40.2227 1.21094 40.2559 1.33984 40.2559 1.48438C40.2559 1.57031 40.248 1.64648 40.2324 1.71289C40.1621 2.03711 40.0352 2.38867 39.8516 2.76758C39.6719 3.14648 39.4238 3.54297 39.1074 3.95703C38.7949 4.36719 38.4102 4.78906 37.9531 5.22266C37.5 5.65625 36.9648 6.08984 36.3477 6.52344C36.2812 6.85156 36.2188 7.18359 36.1602 7.51953C36.1055 7.85547 36.0488 8.18945 35.9902 8.52148C35.9355 8.85352 35.8789 9.17969 35.8203 9.5C35.7617 9.82031 35.6973 10.1289 35.627 10.4258C35.502 10.8984 35.3516 11.3457 35.1758 11.7676C35.0039 12.1895 34.7832 12.5781 34.5137 12.9336C34.7598 12.8086 34.9883 12.6914 35.1992 12.582C35.4102 12.4727 35.5742 12.3906 35.6914 12.3359ZM33.8984 11.4863C33.9844 11.2285 34.0664 10.9375 34.1445 10.6133C34.2227 10.2852 34.293 9.94922 34.3555 9.60547C34.4219 9.25781 34.4805 8.91602 34.5312 8.58008C34.5859 8.24023 34.6309 7.92578 34.666 7.63672C34.0137 8.05469 33.3457 8.45312 32.6621 8.83203C32.6816 8.89844 32.6973 8.9668 32.709 9.03711C32.7207 9.10352 32.7266 9.17578 32.7266 9.25391C32.7266 9.33594 32.7168 9.43359 32.6973 9.54688C32.6816 9.65625 32.6543 9.76172 32.6152 9.86328C32.5801 9.96094 32.5332 10.0449 32.4746 10.1152C32.4199 10.1855 32.3555 10.2207 32.2812 10.2207C32.2188 10.2207 32.166 10.1992 32.123 10.1562C32.084 10.1133 32.0645 10.0586 32.0645 9.99219C32.0645 9.92188 32.0703 9.85352 32.082 9.78711C32.0938 9.7207 32.0996 9.65625 32.0996 9.59375C32.0996 9.42969 32.0801 9.28906 32.041 9.17188C31.002 9.73828 29.9805 10.2422 28.9766 10.6836C27.9727 11.125 27.0156 11.4863 26.1055 11.7676C26.1016 11.7988 26.0996 11.8281 26.0996 11.8555C26.0996 11.8789 26.0996 11.9043 26.0996 11.9316C26.0996 12.3457 26.1836 12.6973 26.3516 12.9863C26.5234 13.2754 26.7539 13.5117 27.043 13.6953C27.332 13.875 27.666 14.0059 28.0449 14.0879C28.4277 14.1699 28.8301 14.2109 29.252 14.2109C29.5098 14.2109 29.752 14.1992 29.9785 14.1758C30.209 14.1562 30.4297 14.127 30.6406 14.0879C30.5781 13.998 30.5352 13.916 30.5117 13.8418C30.4883 13.7676 30.4766 13.7207 30.4766 13.7012C30.4766 13.6191 30.4961 13.5449 30.5352 13.4785C30.5781 13.4082 30.6328 13.3496 30.6992 13.3027C30.7656 13.252 30.8438 13.2129 30.9336 13.1855C31.0234 13.1582 31.1191 13.1445 31.2207 13.1445C31.3535 13.1445 31.4805 13.1738 31.6016 13.2324C31.7227 13.2871 31.8203 13.377 31.8945 13.502C31.9258 13.5566 31.9629 13.6035 32.0059 13.6426C32.4746 13.4004 32.8594 13.0938 33.1602 12.7227C33.4609 12.3516 33.707 11.9395 33.8984 11.4863ZM32 8.84961C31.8633 8.4707 31.7168 8.14648 31.5605 7.87695C31.4043 7.60352 31.2383 7.38086 31.0625 7.20898C30.8906 7.0332 30.7109 6.9043 30.5234 6.82227C30.3359 6.74023 30.1426 6.69922 29.9434 6.69922C29.709 6.69922 29.4707 6.75391 29.2285 6.86328C28.9902 6.97266 28.752 7.12695 28.5137 7.32617C28.2793 7.52539 28.0488 7.76562 27.8223 8.04688C27.5957 8.32812 27.3789 8.64062 27.1719 8.98438C26.9688 9.32812 26.7773 9.69922 26.5977 10.0977C26.418 10.4922 26.2578 10.9062 26.1172 11.3398C27.0352 11.0703 27.9883 10.7246 28.9766 10.3027C29.9688 9.87695 30.9766 9.39258 32 8.84961ZM36.8223 4.66602C36.748 4.88867 36.6816 5.11328 36.623 5.33984C36.5645 5.5625 36.5078 5.79102 36.4531 6.02539C36.9922 5.63867 37.4512 5.25586 37.8301 4.87695C38.2129 4.49414 38.5293 4.125 38.7793 3.76953C39.0332 3.41016 39.2305 3.06836 39.3711 2.74414C39.5117 2.41992 39.6113 2.12305 39.6699 1.85352C39.6738 1.8418 39.6758 1.81445 39.6758 1.77148C39.6758 1.63477 39.6094 1.52148 39.4766 1.43164C39.3477 1.3418 39.1777 1.29688 38.9668 1.29688C38.7559 1.29688 38.5645 1.35156 38.3926 1.46094C38.2246 1.57031 38.0586 1.75586 37.8945 2.01758C37.7344 2.27539 37.5684 2.62109 37.3965 3.05469C37.2246 3.48438 37.0332 4.02148 36.8223 4.66602ZM38.2051 13.2031C38.2051 13.0703 38.2109 12.9258 38.2227 12.7695C38.2383 12.6094 38.2559 12.4434 38.2754 12.2715C38.2988 12.0957 38.3262 11.9199 38.3574 11.7441C38.3887 11.5645 38.4219 11.3887 38.457 11.2168L36.9922 12.0781C36.9531 12.1055 36.9102 12.1191 36.8633 12.1191C36.8164 12.1191 36.7773 12.1035 36.7461 12.0723C36.7109 12.041 36.6934 12.002 36.6934 11.9551C36.6934 11.9004 36.7168 11.8438 36.7637 11.7852C36.8066 11.7227 36.8828 11.6582 36.9922 11.5918L38.5156 10.6367C38.5781 10.457 38.668 10.2148 38.7852 9.91016C38.9023 9.60547 39.0469 9.26758 39.2188 8.89648C39.3906 8.52539 39.5898 8.13281 39.8164 7.71875C40.043 7.30469 40.2988 6.89453 40.584 6.48828C40.8691 6.08203 41.1816 5.69531 41.5215 5.32812C41.8613 4.95703 42.2285 4.63086 42.623 4.34961C43.0215 4.06836 43.4473 3.8457 43.9004 3.68164C44.3574 3.51367 44.8438 3.42969 45.3594 3.42969C45.7969 3.42969 46.1777 3.46094 46.502 3.52344C46.8262 3.58203 47.0938 3.66602 47.3047 3.77539C47.5156 3.88477 47.6719 4.01367 47.7734 4.16211C47.8789 4.30664 47.9316 4.46484 47.9316 4.63672C47.9316 4.90625 47.8145 5.18945 47.5801 5.48633C47.3496 5.7793 47.0039 6.06641 46.543 6.34766L39.875 10.4551L39.5234 12.7109C39.7227 12.5898 39.9219 12.4688 40.1211 12.3477C40.3203 12.2227 40.5078 12.1035 40.6836 11.9902C40.8633 11.877 41.0254 11.7734 41.1699 11.6797C41.3184 11.582 41.4375 11.5 41.5273 11.4336C41.5703 11.3945 41.627 11.3496 41.6973 11.2988C41.7715 11.248 41.8535 11.2012 41.9434 11.1582C42.0371 11.1152 42.1367 11.0781 42.2422 11.0469C42.3477 11.0156 42.457 11 42.5703 11C42.6523 11 42.7344 11.0098 42.8164 11.0293C42.8984 11.0449 42.9707 11.084 43.0332 11.1465C43.0996 11.209 43.1523 11.2988 43.1914 11.416C43.2344 11.5332 43.2559 11.6914 43.2559 11.8906V13.4023C43.2949 13.3789 43.3672 13.3359 43.4727 13.2734C43.582 13.207 43.7129 13.1289 43.8652 13.0391C44.0176 12.9492 44.1836 12.8516 44.3633 12.7461C44.5469 12.6406 44.7305 12.5352 44.9141 12.4297L46.332 11.5918C46.4141 11.5449 46.4844 11.5215 46.543 11.5215C46.6328 11.5215 46.6777 11.5664 46.6777 11.6562C46.6777 11.7188 46.6504 11.7871 46.5957 11.8613C46.5449 11.9316 46.457 12.0039 46.332 12.0781C45.9023 12.332 45.4902 12.5742 45.0957 12.8047C44.7051 13.0352 44.3496 13.2402 44.0293 13.4199C43.7129 13.5996 43.4434 13.7461 43.2207 13.8594C42.998 13.9688 42.8418 14.0312 42.752 14.0469C42.709 14.0547 42.6641 14.0605 42.6172 14.0645C42.5703 14.0684 42.5234 14.0703 42.4766 14.0703C42.3359 14.0703 42.2207 14.0508 42.1309 14.0117C42.0449 13.9766 41.9766 13.9277 41.9258 13.8652C41.8789 13.7988 41.8457 13.7246 41.8262 13.6426C41.8105 13.5605 41.8027 13.4727 41.8027 13.3789C41.8027 13.2891 41.8184 13.1953 41.8496 13.0977C41.8848 12.9961 41.9102 12.8848 41.9258 12.7637L42.0898 11.4805C41.5 11.8945 40.9609 12.2617 40.4727 12.582C40.3008 12.7188 40.1309 12.8496 39.9629 12.9746C39.7949 13.0996 39.6406 13.2109 39.5 13.3086C39.3633 13.4062 39.2441 13.4844 39.1426 13.543C39.041 13.5977 38.9727 13.625 38.9375 13.625C38.8633 13.625 38.7832 13.6211 38.6973 13.6133C38.6113 13.6055 38.5312 13.5879 38.457 13.5605C38.3867 13.5293 38.3262 13.4863 38.2754 13.4316C38.2285 13.373 38.2051 13.2969 38.2051 13.2031ZM39.9805 9.70508C40.4727 9.37305 40.9844 9.03125 41.5156 8.67969C42.0469 8.32422 42.584 7.97266 43.127 7.625C43.6738 7.27734 44.2168 6.9375 44.7559 6.60547C45.2988 6.26953 45.8262 5.95508 46.3379 5.66211C46.6348 5.43945 46.8633 5.23242 47.0234 5.04102C47.1836 4.84961 47.2637 4.67773 47.2637 4.52539C47.2637 4.33008 47.1152 4.17578 46.8184 4.0625C46.5215 3.94531 46.0508 3.88672 45.4062 3.88672C45.1055 3.88672 44.8047 3.94531 44.5039 4.0625C44.2031 4.17578 43.9062 4.33203 43.6133 4.53125C43.3242 4.73047 43.043 4.96484 42.7695 5.23438C42.4961 5.5 42.2363 5.78516 41.9902 6.08984C41.7441 6.39453 41.5137 6.71094 41.2988 7.03906C41.084 7.36328 40.8887 7.68359 40.7129 8C40.541 8.31641 40.3926 8.62109 40.2676 8.91406C40.1426 9.20703 40.0469 9.4707 39.9805 9.70508ZM51.834 9.23633C52.0566 9.23633 52.2539 9.28125 52.4258 9.37109C52.6016 9.46094 52.748 9.58398 52.8652 9.74023C52.9863 9.89258 53.0781 10.0723 53.1406 10.2793C53.2031 10.4863 53.2344 10.707 53.2344 10.9414C53.2344 11.0781 53.2188 11.2285 53.1875 11.3926C53.1562 11.5566 53.1113 11.7266 53.0527 11.9023C52.9941 12.0742 52.9219 12.2461 52.8359 12.418C52.7539 12.5898 52.6621 12.748 52.5605 12.8926C52.6348 12.8535 52.7246 12.8047 52.8301 12.7461C52.9355 12.6875 53.0469 12.625 53.1641 12.5586C53.2852 12.4883 53.4102 12.416 53.5391 12.3418C53.6719 12.2676 53.8008 12.1953 53.9258 12.125L54.834 11.5918C54.8613 11.5762 54.8984 11.5684 54.9453 11.5684C55.0352 11.5684 55.0801 11.6152 55.0801 11.709C55.0801 11.8379 54.998 11.9609 54.834 12.0781C54.6934 12.1719 54.5098 12.2891 54.2832 12.4297C54.0566 12.5703 53.8105 12.709 53.5449 12.8457C53.2832 12.9785 53.0156 13.0977 52.7422 13.2031C52.4727 13.3047 52.2207 13.3633 51.9863 13.3789C51.6816 13.6055 51.3242 13.7891 50.9141 13.9297C50.5039 14.0664 50.0254 14.1348 49.4785 14.1348C49.209 14.1348 48.9805 14.1113 48.793 14.0645C48.6094 14.0176 48.4609 13.9492 48.3477 13.8594C48.2344 13.7695 48.1523 13.6602 48.1016 13.5312C48.0508 13.3984 48.0254 13.2461 48.0254 13.0742C48.0254 12.8242 48.0762 12.5566 48.1777 12.2715C48.2793 11.9863 48.4043 11.709 48.5527 11.4395C48.7051 11.166 48.8672 10.9121 49.0391 10.6777C49.2109 10.4434 49.3672 10.25 49.5078 10.0977C49.3828 10.207 49.2051 10.3379 48.9746 10.4902C48.748 10.6426 48.4902 10.8066 48.2012 10.9824C47.916 11.1543 47.6113 11.334 47.2871 11.5215C46.9668 11.709 46.6484 11.8945 46.332 12.0781C46.2852 12.0977 46.2422 12.1074 46.2031 12.1074C46.1523 12.1074 46.1133 12.0938 46.0859 12.0664C46.0586 12.0352 46.0449 11.9961 46.0449 11.9492C46.0449 11.8945 46.0684 11.8379 46.1152 11.7793C46.1582 11.7168 46.2305 11.6543 46.332 11.5918C46.9258 11.2441 47.4316 10.9453 47.8496 10.6953C48.2676 10.4414 48.6289 10.2266 48.9336 10.0508C49.2383 9.875 49.5039 9.73438 49.7305 9.62891C49.957 9.52344 50.1738 9.44141 50.3809 9.38281C50.5918 9.32422 50.8105 9.28516 51.0371 9.26562C51.2637 9.24609 51.5293 9.23633 51.834 9.23633ZM49.4902 13.6309C49.7363 13.6309 49.9766 13.5801 50.2109 13.4785C50.4453 13.377 50.6738 13.2383 50.8965 13.0625C50.8457 13.0039 50.8105 12.9375 50.791 12.8633C50.7715 12.7891 50.7617 12.7129 50.7617 12.6348C50.7617 12.498 50.8066 12.3965 50.8965 12.3301C50.9863 12.2598 51.0938 12.2246 51.2188 12.2246C51.3516 12.2246 51.4805 12.2637 51.6055 12.3418C51.7305 12.252 51.8496 12.1445 51.9629 12.0195C52.0762 11.8945 52.1738 11.7617 52.2559 11.6211C52.3418 11.4805 52.4082 11.3359 52.4551 11.1875C52.5059 11.0391 52.5312 10.8945 52.5312 10.7539C52.5312 10.6328 52.5078 10.5176 52.4609 10.4082C52.418 10.2949 52.3457 10.1973 52.2441 10.1152C52.1465 10.0332 52.0156 9.96875 51.8516 9.92188C51.6914 9.87109 51.4961 9.8457 51.2656 9.8457C51.0742 9.8457 50.8828 9.89648 50.6914 9.99805C50.5039 10.0996 50.3223 10.2363 50.1465 10.4082C49.9746 10.5762 49.8125 10.7695 49.6602 10.9883C49.5117 11.2031 49.3828 11.4258 49.2734 11.6562C49.1641 11.8867 49.0781 12.1133 49.0156 12.3359C48.9531 12.5586 48.9219 12.7617 48.9219 12.9453C48.9219 13.1484 48.9668 13.3145 49.0566 13.4434C49.1465 13.5684 49.291 13.6309 49.4902 13.6309ZM54.8398 11.5918L57.9453 9.61133C57.9453 9.61133 57.9609 9.58984 57.9922 9.54688C58.0195 9.50781 58.0625 9.45898 58.1211 9.40039C58.1797 9.3418 58.25 9.27734 58.332 9.20703C58.418 9.13672 58.5156 9.07227 58.625 9.01367C58.7344 8.95508 58.8555 8.90625 58.9883 8.86719C59.125 8.82812 59.2734 8.80859 59.4336 8.80859C59.6602 8.80859 59.9004 8.83203 60.1543 8.87891C60.4121 8.92188 60.6484 9.00391 60.8633 9.125C61.0781 9.24219 61.2559 9.4082 61.3965 9.62305C61.541 9.83398 61.6133 10.1074 61.6133 10.4434C61.6133 10.6035 61.5684 10.7871 61.4785 10.9941C61.3926 11.1973 61.2695 11.4082 61.1094 11.627C60.9531 11.8457 60.7637 12.0664 60.541 12.2891C60.3184 12.5117 60.0742 12.7227 59.8086 12.9219L62.0176 11.5918C62.0449 11.5801 62.0742 11.5742 62.1055 11.5742C62.1484 11.5742 62.1816 11.5898 62.2051 11.6211C62.2324 11.6523 62.2461 11.6914 62.2461 11.7383C62.2461 11.793 62.2266 11.8516 62.1875 11.9141C62.1523 11.9766 62.0957 12.0312 62.0176 12.0781C61.5332 12.3672 61.0977 12.6152 60.7109 12.8223C60.3281 13.0254 59.9805 13.1953 59.668 13.332C59.3555 13.4688 59.0703 13.5781 58.8125 13.6602C58.5586 13.7383 58.3164 13.7988 58.0859 13.8418C57.8594 13.8809 57.6387 13.9062 57.4238 13.918C57.209 13.9297 56.9863 13.9355 56.7559 13.9355C56.5957 14.2871 56.4258 14.6367 56.2461 14.9844C56.0664 15.3359 55.8926 15.6758 55.7246 16.0039C55.5566 16.3359 55.4004 16.6523 55.2559 16.9531C55.1113 17.2578 54.9941 17.541 54.9043 17.8027C54.8926 17.8379 54.8711 17.8867 54.8398 17.9492C54.8047 18.0117 54.7637 18.0742 54.7168 18.1367C54.6699 18.1992 54.6211 18.252 54.5703 18.2949C54.5156 18.3418 54.4629 18.3652 54.4121 18.3652C54.3457 18.3652 54.2773 18.3574 54.207 18.3418C54.1367 18.3262 54.0703 18.3027 54.0078 18.2715C53.9453 18.2441 53.8945 18.209 53.8555 18.166C53.8164 18.127 53.7969 18.0801 53.7969 18.0254C53.7969 18.002 53.7988 17.9883 53.8027 17.9844C53.8457 17.7617 53.9316 17.4941 54.0605 17.1816C54.1855 16.873 54.3398 16.5332 54.5234 16.1621C54.7031 15.791 54.9004 15.3984 55.1152 14.9844C55.334 14.5703 55.5547 14.1504 55.7773 13.7246C56 13.2988 56.2148 12.875 56.4219 12.4531C56.6328 12.0312 56.8223 11.627 56.9902 11.2402C57.0137 11.1816 57.0449 11.1211 57.084 11.0586C57.127 10.9961 57.1699 10.9336 57.2129 10.8711C57.2598 10.8047 57.3066 10.7422 57.3535 10.6836C57.4004 10.625 57.4414 10.5723 57.4766 10.5254C57.4102 10.5605 57.291 10.6309 57.1191 10.7363C56.9473 10.8379 56.7402 10.9609 56.498 11.1055C56.2598 11.2461 55.9961 11.4023 55.707 11.5742C55.4219 11.7422 55.1328 11.9102 54.8398 12.0781C54.8164 12.0898 54.7949 12.0957 54.7754 12.0957C54.7324 12.0957 54.6934 12.0781 54.6582 12.043C54.623 12.0039 54.6055 11.957 54.6055 11.9023C54.6055 11.8555 54.623 11.8047 54.6582 11.75C54.6934 11.6953 54.7539 11.6426 54.8398 11.5918ZM59.8145 9.48828C59.6035 9.48828 59.3828 9.59375 59.1523 9.80469C58.9258 10.0156 58.6953 10.3008 58.4609 10.6602C58.2266 11.0156 57.9922 11.4316 57.7578 11.9082C57.5234 12.3809 57.2949 12.8809 57.0723 13.4082C57.3027 13.4082 57.5469 13.375 57.8047 13.3086C58.0664 13.2422 58.3262 13.1484 58.584 13.0273C58.8418 12.9023 59.0879 12.7559 59.3223 12.5879C59.5605 12.416 59.7695 12.2266 59.9492 12.0195C60.1328 11.8086 60.2773 11.584 60.3828 11.3457C60.4922 11.1035 60.5469 10.8535 60.5469 10.5957C60.5469 10.4277 60.5332 10.2773 60.5059 10.1445C60.4785 10.0078 60.4355 9.89062 60.377 9.79297C60.3184 9.69531 60.2422 9.62109 60.1484 9.57031C60.0586 9.51562 59.9473 9.48828 59.8145 9.48828ZM62.0234 11.5918L65.1289 9.61133C65.1289 9.61133 65.1445 9.58984 65.1758 9.54688C65.2031 9.50781 65.2461 9.45898 65.3047 9.40039C65.3633 9.3418 65.4336 9.27734 65.5156 9.20703C65.6016 9.13672 65.6992 9.07227 65.8086 9.01367C65.918 8.95508 66.0391 8.90625 66.1719 8.86719C66.3086 8.82812 66.457 8.80859 66.6172 8.80859C66.8438 8.80859 67.084 8.83203 67.3379 8.87891C67.5957 8.92188 67.832 9.00391 68.0469 9.125C68.2617 9.24219 68.4395 9.4082 68.5801 9.62305C68.7246 9.83398 68.7969 10.1074 68.7969 10.4434C68.7969 10.6035 68.752 10.7871 68.6621 10.9941C68.5762 11.1973 68.4531 11.4082 68.293 11.627C68.1367 11.8457 67.9473 12.0664 67.7246 12.2891C67.502 12.5117 67.2578 12.7227 66.9922 12.9219L69.2012 11.5918C69.2285 11.5801 69.2578 11.5742 69.2891 11.5742C69.332 11.5742 69.3652 11.5898 69.3887 11.6211C69.416 11.6523 69.4297 11.6914 69.4297 11.7383C69.4297 11.793 69.4102 11.8516 69.3711 11.9141C69.3359 11.9766 69.2793 12.0312 69.2012 12.0781C68.7168 12.3672 68.2812 12.6152 67.8945 12.8223C67.5117 13.0254 67.1641 13.1953 66.8516 13.332C66.5391 13.4688 66.2539 13.5781 65.9961 13.6602C65.7422 13.7383 65.5 13.7988 65.2695 13.8418C65.043 13.8809 64.8223 13.9062 64.6074 13.918C64.3926 13.9297 64.1699 13.9355 63.9395 13.9355C63.7793 14.2871 63.6094 14.6367 63.4297 14.9844C63.25 15.3359 63.0762 15.6758 62.9082 16.0039C62.7402 16.3359 62.584 16.6523 62.4395 16.9531C62.2949 17.2578 62.1777 17.541 62.0879 17.8027C62.0762 17.8379 62.0547 17.8867 62.0234 17.9492C61.9883 18.0117 61.9473 18.0742 61.9004 18.1367C61.8535 18.1992 61.8047 18.252 61.7539 18.2949C61.6992 18.3418 61.6465 18.3652 61.5957 18.3652C61.5293 18.3652 61.4609 18.3574 61.3906 18.3418C61.3203 18.3262 61.2539 18.3027 61.1914 18.2715C61.1289 18.2441 61.0781 18.209 61.0391 18.166C61 18.127 60.9805 18.0801 60.9805 18.0254C60.9805 18.002 60.9824 17.9883 60.9863 17.9844C61.0293 17.7617 61.1152 17.4941 61.2441 17.1816C61.3691 16.873 61.5234 16.5332 61.707 16.1621C61.8867 15.791 62.084 15.3984 62.2988 14.9844C62.5176 14.5703 62.7383 14.1504 62.9609 13.7246C63.1836 13.2988 63.3984 12.875 63.6055 12.4531C63.8164 12.0312 64.0059 11.627 64.1738 11.2402C64.1973 11.1816 64.2285 11.1211 64.2676 11.0586C64.3105 10.9961 64.3535 10.9336 64.3965 10.8711C64.4434 10.8047 64.4902 10.7422 64.5371 10.6836C64.584 10.625 64.625 10.5723 64.6602 10.5254C64.5938 10.5605 64.4746 10.6309 64.3027 10.7363C64.1309 10.8379 63.9238 10.9609 63.6816 11.1055C63.4434 11.2461 63.1797 11.4023 62.8906 11.5742C62.6055 11.7422 62.3164 11.9102 62.0234 12.0781C62 12.0898 61.9785 12.0957 61.959 12.0957C61.916 12.0957 61.877 12.0781 61.8418 12.043C61.8066 12.0039 61.7891 11.957 61.7891 11.9023C61.7891 11.8555 61.8066 11.8047 61.8418 11.75C61.877 11.6953 61.9375 11.6426 62.0234 11.5918ZM66.998 9.48828C66.7871 9.48828 66.5664 9.59375 66.3359 9.80469C66.1094 10.0156 65.8789 10.3008 65.6445 10.6602C65.4102 11.0156 65.1758 11.4316 64.9414 11.9082C64.707 12.3809 64.4785 12.8809 64.2559 13.4082C64.4863 13.4082 64.7305 13.375 64.9883 13.3086C65.25 13.2422 65.5098 13.1484 65.7676 13.0273C66.0254 12.9023 66.2715 12.7559 66.5059 12.5879C66.7441 12.416 66.9531 12.2266 67.1328 12.0195C67.3164 11.8086 67.4609 11.584 67.5664 11.3457C67.6758 11.1035 67.7305 10.8535 67.7305 10.5957C67.7305 10.4277 67.7168 10.2773 67.6895 10.1445C67.6621 10.0078 67.6191 9.89062 67.5605 9.79297C67.502 9.69531 67.4258 9.62109 67.332 9.57031C67.2422 9.51562 67.1309 9.48828 66.998 9.48828ZM75.793 12.0781C75.1875 12.4258 74.6738 12.7285 74.252 12.9863C73.8301 13.2402 73.4707 13.4512 73.1738 13.6191C72.877 13.7832 72.625 13.9062 72.418 13.9883C72.2148 14.0664 72.0293 14.1055 71.8613 14.1055C71.6973 14.1055 71.5566 14.0859 71.4395 14.0469C71.3262 14.0078 71.2324 13.9551 71.1582 13.8887C71.084 13.8223 71.0293 13.7422 70.9941 13.6484C70.9629 13.5547 70.9473 13.4531 70.9473 13.3438C70.9473 13.2617 70.9648 13.1777 71 13.0918C71.0352 13.0059 71.0781 12.918 71.1289 12.8281C71.1836 12.7383 71.2402 12.6445 71.2988 12.5469C71.3574 12.4453 71.4121 12.3379 71.4629 12.2246L72.3535 10.2324L69.207 12.0781C69.1562 12.0977 69.1211 12.1074 69.1016 12.1074C69.0547 12.1074 69.0137 12.0918 68.9785 12.0605C68.9395 12.0293 68.9199 11.9883 68.9199 11.9375C68.9199 11.8906 68.9414 11.8379 68.9844 11.7793C69.0234 11.7207 69.0977 11.6582 69.207 11.5918L70.7246 10.707C70.9238 10.5898 71.125 10.4727 71.3281 10.3555C71.5312 10.2383 71.7207 10.1289 71.8965 10.0273C72.0762 9.92578 72.2363 9.83594 72.377 9.75781C72.5215 9.67578 72.6328 9.61328 72.7109 9.57031H73.4668C73.4824 9.58203 73.4961 9.60156 73.5078 9.62891C73.5195 9.65625 73.5254 9.69727 73.5254 9.75195C73.5254 9.85352 73.4961 9.99805 73.4375 10.1855C73.3789 10.3691 73.3047 10.5762 73.2148 10.8066C73.1289 11.0371 73.0312 11.2793 72.9219 11.5332C72.8164 11.7832 72.7168 12.0215 72.623 12.248C72.5293 12.4707 72.4316 12.6934 72.3301 12.916C72.2285 13.1387 72.127 13.3672 72.0254 13.6016C72.1309 13.6016 72.2969 13.5488 72.5234 13.4434C72.7539 13.3379 73.0312 13.1953 73.3555 13.0156C73.6836 12.832 74.0527 12.6191 74.4629 12.377C74.877 12.1309 75.3203 11.8691 75.793 11.5918C75.8086 11.5762 75.8379 11.5684 75.8809 11.5684C75.9277 11.5684 75.9707 11.584 76.0098 11.6152C76.0527 11.6465 76.0742 11.6895 76.0742 11.7441C76.0742 11.791 76.0527 11.8438 76.0098 11.9023C75.9707 11.957 75.8984 12.0156 75.793 12.0781ZM74.1758 7.51953C74.1992 7.51953 74.2422 7.52148 74.3047 7.52539C74.3711 7.52539 74.4453 7.5293 74.5273 7.53711C74.6094 7.54492 74.6953 7.55859 74.7852 7.57812C74.875 7.59375 74.957 7.61914 75.0312 7.6543C75.1055 7.68555 75.168 7.72656 75.2188 7.77734C75.2695 7.82812 75.2969 7.89062 75.3008 7.96484L74.4512 8.60938L74.0645 8.79102C73.9941 8.79102 73.9395 8.77148 73.9004 8.73242C73.8613 8.69336 73.832 8.65234 73.8125 8.60938L74.1758 7.51953ZM82.877 10.2031C82.7285 10.2031 82.543 10.2461 82.3203 10.332C82.0977 10.4141 81.8535 10.5293 81.5879 10.6777C81.3223 10.8223 81.0449 10.9941 80.7559 11.1934C80.4707 11.3926 80.1895 11.6094 79.9121 11.8438C79.6387 12.0781 79.377 12.3262 79.127 12.5879C78.8809 12.8457 78.666 13.1055 78.4824 13.3672C78.4629 13.3867 78.4531 13.4316 78.4531 13.502C78.4531 13.5684 78.4414 13.6387 78.418 13.7129C78.3984 13.7871 78.3574 13.8535 78.2949 13.9121C78.2324 13.9707 78.1289 14 77.9844 14C77.8828 14 77.8027 13.9883 77.7441 13.9648C77.6895 13.9414 77.6465 13.9102 77.6152 13.8711C77.5879 13.8281 77.5703 13.7793 77.5625 13.7246C77.5547 13.666 77.5508 13.6016 77.5508 13.5312C77.5508 13.4609 77.5703 13.3574 77.6094 13.2207C77.6484 13.084 77.6992 12.9258 77.7617 12.7461C77.8242 12.5664 77.8945 12.373 77.9727 12.166C78.0508 11.959 78.1289 11.752 78.207 11.5449C78.2891 11.3379 78.3652 11.1367 78.4355 10.9414C78.5098 10.7461 78.5723 10.5703 78.623 10.4141L75.793 12.0781C75.7734 12.082 75.7578 12.0859 75.7461 12.0898C75.7305 12.0898 75.7188 12.0898 75.7109 12.0898C75.6562 12.0898 75.6172 12.0762 75.5938 12.0488C75.5664 12.0176 75.5527 11.9805 75.5527 11.9375C75.5527 11.8828 75.5742 11.8242 75.6172 11.7617C75.6562 11.6953 75.7148 11.6387 75.793 11.5918C76.3789 11.2441 76.8613 10.959 77.2402 10.7363C77.623 10.5098 77.9297 10.3281 78.1602 10.1914C78.3906 10.0547 78.5625 9.95312 78.6758 9.88672C78.793 9.82031 78.8809 9.77148 78.9395 9.74023C78.9941 9.70898 79.043 9.6875 79.0859 9.67578C79.1328 9.66406 79.1836 9.6582 79.2383 9.6582C79.3516 9.6582 79.4434 9.69141 79.5137 9.75781C79.5879 9.82422 79.625 9.89844 79.625 9.98047C79.625 10.0625 79.5996 10.1758 79.5488 10.3203C79.498 10.4609 79.4355 10.6152 79.3613 10.7832C79.2871 10.9512 79.2109 11.123 79.1328 11.2988C79.0547 11.4707 78.9883 11.6309 78.9336 11.7793C78.9102 11.8379 78.8906 11.8867 78.875 11.9258C78.8633 11.9609 78.8477 12.002 78.8281 12.0488C78.8125 12.0957 78.7891 12.1562 78.7578 12.2305C78.7266 12.3008 78.6816 12.4004 78.623 12.5293C78.7871 12.3184 78.9785 12.0977 79.1973 11.8672C79.4199 11.6367 79.6602 11.4121 79.918 11.1934C80.1797 10.9707 80.457 10.7598 80.75 10.5605C81.0469 10.3613 81.3516 10.1875 81.6641 10.0391C81.9805 9.88672 82.3027 9.76758 82.6309 9.68164C82.959 9.5918 83.2852 9.54688 83.6094 9.54688C83.8086 9.54688 83.9453 9.58984 84.0195 9.67578C84.0977 9.75781 84.1367 9.87109 84.1367 10.0156C84.1367 10.1328 84.1152 10.2754 84.0723 10.4434C84.0293 10.6113 83.9707 10.7949 83.8965 10.9941C83.8223 11.1895 83.7383 11.4004 83.6445 11.627C83.5508 11.8496 83.4512 12.0762 83.3457 12.3066C83.2441 12.5332 83.1406 12.7617 83.0352 12.9922C82.9336 13.2227 82.8379 13.4434 82.748 13.6543C82.9707 13.5645 83.2031 13.4473 83.4453 13.3027C83.6875 13.1582 83.9453 12.9961 84.2188 12.8164C84.4961 12.6367 84.7871 12.4434 85.0918 12.2363C85.4004 12.0254 85.7305 11.8105 86.082 11.5918C86.1094 11.5762 86.1465 11.5684 86.1934 11.5684C86.2871 11.5684 86.334 11.6211 86.334 11.7266C86.334 11.7812 86.3125 11.8418 86.2695 11.9082C86.2266 11.9707 86.1641 12.0273 86.082 12.0781C85.6172 12.3672 85.1973 12.6426 84.8223 12.9043C84.4473 13.166 84.1035 13.3984 83.791 13.6016C83.4824 13.8047 83.1992 13.9648 82.9414 14.082C82.6875 14.2031 82.4512 14.2637 82.2324 14.2637C82.0996 14.2637 81.9863 14.2461 81.8926 14.2109C81.7988 14.1797 81.7207 14.1367 81.6582 14.082C81.5996 14.0273 81.5547 13.9629 81.5234 13.8887C81.4961 13.8105 81.4824 13.7305 81.4824 13.6484C81.4824 13.5586 81.5 13.4707 81.5352 13.3848C81.5742 13.2949 81.627 13.1992 81.6934 13.0977C81.8145 12.832 81.9492 12.5547 82.0977 12.2656C82.2461 11.9727 82.3828 11.6953 82.5078 11.4336C82.6328 11.1719 82.7383 10.9395 82.8242 10.7363C82.9102 10.5332 82.9531 10.3867 82.9531 10.2969C82.9531 10.2344 82.9277 10.2031 82.877 10.2031ZM95.0938 11.5918C95.1211 11.5762 95.1543 11.5684 95.1934 11.5684C95.2402 11.5684 95.2812 11.584 95.3164 11.6152C95.3555 11.6426 95.375 11.6816 95.375 11.7324C95.375 11.7832 95.3535 11.8379 95.3105 11.8965C95.2676 11.9551 95.1953 12.0156 95.0938 12.0781C94.9023 12.1914 94.6816 12.3223 94.4316 12.4707C94.1855 12.6152 93.918 12.7734 93.6289 12.9453C93.3438 13.1172 93.041 13.3008 92.7207 13.4961C92.4004 13.6875 92.0723 13.8848 91.7363 14.0879C91.4512 14.5449 91.1426 15 90.8105 15.4531C90.4824 15.9062 90.1445 16.3379 89.7969 16.748C89.4492 17.1621 89.1016 17.5469 88.7539 17.9023C88.4062 18.2578 88.0723 18.5664 87.752 18.8281C87.4316 19.0898 87.1309 19.2949 86.8496 19.4434C86.5723 19.5918 86.332 19.666 86.1289 19.666C85.9805 19.666 85.8477 19.6523 85.7305 19.625C85.6133 19.5977 85.5156 19.5488 85.4375 19.4785C85.3555 19.4121 85.2949 19.3223 85.2559 19.209C85.2129 19.0957 85.1914 18.9531 85.1914 18.7812C85.1914 18.6836 85.252 18.5547 85.373 18.3945C85.4941 18.2344 85.6641 18.0508 85.8828 17.8438C86.1016 17.6406 86.3613 17.416 86.6621 17.1699C86.9629 16.9277 87.291 16.6738 87.6465 16.4082C88.0059 16.1426 88.3867 15.8672 88.7891 15.582C89.1914 15.3008 89.6016 15.0195 90.0195 14.7383C90.457 14.1992 90.9492 13.6016 91.4961 12.9453C91.3477 13.082 91.1855 13.2109 91.0098 13.332C90.834 13.4531 90.6523 13.5605 90.4648 13.6543C90.2812 13.7441 90.0977 13.8164 89.9141 13.8711C89.7305 13.9258 89.5586 13.9531 89.3984 13.9531C89.1875 13.9531 88.9922 13.9316 88.8125 13.8887C88.6367 13.8457 88.4844 13.7773 88.3555 13.6836C88.2266 13.5859 88.125 13.4609 88.0508 13.3086C87.9805 13.1562 87.9453 12.9707 87.9453 12.752C87.9453 12.5293 87.9766 12.3164 88.0391 12.1133C88.1055 11.9062 88.1934 11.7109 88.3027 11.5273C88.4121 11.3438 88.5352 11.1719 88.6719 11.0117C88.8086 10.8516 88.9512 10.7051 89.0996 10.5723C89.2441 10.416 89.3965 10.2676 89.5566 10.127C89.7207 9.98242 89.8965 9.84766 90.084 9.72266L86.082 12.0781C86.0156 12.1133 85.9609 12.1309 85.918 12.1309C85.8203 12.1309 85.7715 12.082 85.7715 11.9844C85.7715 11.9297 85.7969 11.8672 85.8477 11.7969C85.8945 11.7266 85.9727 11.6582 86.082 11.5918C86.75 11.1855 87.377 10.8262 87.9629 10.5137C88.5527 10.2012 89.0957 9.93945 89.5918 9.72852C90.0918 9.51367 90.5449 9.35156 90.9512 9.24219C91.3613 9.13281 91.7207 9.07812 92.0293 9.07812C92.4434 9.07812 92.7598 9.18359 92.9785 9.39453C93.1973 9.60156 93.3066 9.92383 93.3066 10.3613C93.3066 10.5488 93.2793 10.7539 93.2246 10.9766C93.1738 11.1992 93.0996 11.4375 93.002 11.6914C92.9082 11.9414 92.793 12.2031 92.6562 12.4766C92.5234 12.75 92.375 13.0293 92.2109 13.3145C92.7734 12.959 93.2988 12.6367 93.7871 12.3477C94.2793 12.0547 94.7148 11.8027 95.0938 11.5918ZM89.1113 12.7988C89.1113 13.1309 89.1523 13.3672 89.2344 13.5078C89.3203 13.6445 89.4629 13.7129 89.6621 13.7129C89.8066 13.7129 89.9629 13.6777 90.1309 13.6074C90.2988 13.5371 90.4688 13.4473 90.6406 13.3379C90.8125 13.2246 90.9785 13.0996 91.1387 12.9629C91.3027 12.8223 91.4531 12.6855 91.5898 12.5527C91.7266 12.4199 91.8418 12.2969 91.9355 12.1836C92.0332 12.0703 92.1016 11.9805 92.1406 11.9141C92.2344 11.7734 92.3105 11.6484 92.3691 11.5391C92.4277 11.4297 92.4746 11.3203 92.5098 11.2109C92.5449 11.0977 92.5684 10.9785 92.5801 10.8535C92.5918 10.7246 92.5977 10.5723 92.5977 10.3965C92.5977 10.3379 92.5801 10.2754 92.5449 10.209C92.5098 10.1426 92.4648 10.082 92.4102 10.0273C92.3594 9.97266 92.3027 9.92773 92.2402 9.89258C92.1816 9.85742 92.1289 9.83984 92.082 9.83984C91.6211 9.83984 91.2109 9.92188 90.8516 10.0859C90.4961 10.2461 90.1934 10.4629 89.9434 10.7363C89.6934 11.0098 89.498 11.3242 89.3574 11.6797C89.2168 12.0352 89.1348 12.4082 89.1113 12.7988ZM86.1641 19.1094C86.2656 19.1094 86.4062 19.0352 86.5859 18.8867C86.7656 18.7383 86.9941 18.5176 87.2715 18.2246C87.5488 17.9316 87.877 17.5645 88.2559 17.123C88.6348 16.6855 89.0742 16.1758 89.5742 15.5938C89.3203 15.7773 89.0488 15.9707 88.7598 16.1738C88.4746 16.377 88.1914 16.5781 87.9102 16.7773C87.6328 16.9805 87.3652 17.1797 87.1074 17.375C86.8535 17.5703 86.627 17.752 86.4277 17.9199C86.2324 18.0918 86.0781 18.2441 85.9648 18.377C85.8477 18.5137 85.7891 18.625 85.7891 18.7109C85.7891 18.7461 85.7949 18.7871 85.8066 18.834C85.8184 18.8809 85.8398 18.9238 85.8711 18.9629C85.8984 19.0059 85.9375 19.041 85.9883 19.0684C86.0352 19.0957 86.0938 19.1094 86.1641 19.1094ZM117.67 11.5918C117.717 11.5684 117.76 11.5566 117.799 11.5566C117.842 11.5566 117.875 11.5723 117.898 11.6035C117.922 11.6309 117.934 11.666 117.934 11.709C117.934 11.7637 117.912 11.8262 117.869 11.8965C117.826 11.9629 117.76 12.0234 117.67 12.0781L116.797 12.5879C116.516 12.752 116.189 12.9453 115.818 13.168C115.447 13.3867 115.037 13.6309 114.588 13.9004C114.174 14.1465 113.826 14.3184 113.545 14.416C113.268 14.5176 113.035 14.5684 112.848 14.5684C112.723 14.5684 112.619 14.5488 112.537 14.5098C112.455 14.4746 112.387 14.4258 112.332 14.3633C112.281 14.3047 112.244 14.2363 112.221 14.1582C112.201 14.0801 112.191 14 112.191 13.918C112.191 13.6992 112.213 13.4219 112.256 13.0859C112.303 12.75 112.363 12.3789 112.438 11.9727C112.516 11.5625 112.604 11.1309 112.701 10.6777C112.803 10.2246 112.908 9.77148 113.018 9.31836C113.127 8.86133 113.236 8.41602 113.346 7.98242C113.455 7.54883 113.557 7.14844 113.65 6.78125C113.748 6.41406 113.834 6.09375 113.908 5.82031C113.986 5.54297 114.045 5.33594 114.084 5.19922L108.5 13.7305C108.5 13.7344 108.48 13.7656 108.441 13.8242C108.402 13.8828 108.35 13.9473 108.283 14.0176C108.217 14.0879 108.137 14.1504 108.043 14.2051C107.953 14.2637 107.854 14.293 107.744 14.293C107.643 14.293 107.576 14.2637 107.545 14.2051C107.518 14.1465 107.504 14.0879 107.504 14.0293C107.504 14.0059 107.504 13.9824 107.504 13.959C107.508 13.9316 107.514 13.9141 107.521 13.9062L108.119 7.63086C107.959 7.9082 107.76 8.24219 107.521 8.63281C107.287 9.01953 107.021 9.4375 106.725 9.88672C106.432 10.332 106.111 10.7988 105.764 11.2871C105.42 11.7715 105.059 12.25 104.68 12.7227C104.785 12.9648 104.838 13.2246 104.838 13.502C104.838 13.7168 104.807 13.9336 104.744 14.1523C104.686 14.3711 104.598 14.582 104.48 14.7852C104.367 14.9883 104.227 15.1777 104.059 15.3535C103.895 15.5332 103.707 15.6875 103.496 15.8164C103.289 15.9492 103.061 16.0527 102.811 16.127C102.561 16.2012 102.293 16.2383 102.008 16.2383C101.996 16.2383 101.98 16.2305 101.961 16.2148C101.945 16.1992 101.93 16.1797 101.914 16.1562C101.902 16.1328 101.891 16.1074 101.879 16.0801C101.867 16.0527 101.861 16.0293 101.861 16.0098C101.861 16.002 101.865 15.9922 101.873 15.9805C101.885 15.9688 101.898 15.9629 101.914 15.9629C102.242 15.9629 102.551 15.8887 102.84 15.7402C103.133 15.5957 103.387 15.4082 103.602 15.1777C103.82 14.9512 103.992 14.6973 104.117 14.416C104.246 14.1387 104.311 13.8652 104.311 13.5957C104.311 13.4551 104.293 13.3203 104.258 13.1914C103.91 13.5625 103.553 13.9121 103.186 14.2402C102.818 14.5684 102.447 14.8535 102.072 15.0957C101.701 15.3418 101.328 15.5352 100.953 15.6758C100.578 15.8203 100.209 15.8926 99.8457 15.8926C99.5605 15.8926 99.3027 15.8652 99.0723 15.8105C98.8418 15.7598 98.6445 15.6777 98.4805 15.5645C98.3164 15.4551 98.1895 15.3125 98.0996 15.1367C98.0098 14.9609 97.9648 14.752 97.9648 14.5098C97.9648 14.1895 98.0352 13.8945 98.1758 13.625C98.3125 13.3555 98.4941 13.1113 98.7207 12.8926C98.9512 12.6738 99.2168 12.4805 99.5176 12.3125C99.8184 12.1445 100.131 12.0059 100.455 11.8965C100.783 11.7832 101.109 11.6992 101.434 11.6445C101.762 11.5859 102.068 11.5566 102.354 11.5566C102.768 11.5566 103.123 11.6035 103.42 11.6973C103.721 11.7871 103.973 11.9141 104.176 12.0781C104.656 11.4883 105.119 10.8672 105.564 10.2148C106.014 9.5625 106.422 8.90625 106.789 8.24609C107.156 7.58594 107.471 6.9375 107.732 6.30078C107.994 5.66016 108.18 5.05859 108.289 4.49609C108.289 4.48828 108.303 4.42969 108.33 4.32031C108.357 4.20703 108.398 4.07031 108.453 3.91016C108.508 3.74609 108.572 3.57031 108.646 3.38281C108.725 3.19531 108.811 3.02344 108.904 2.86719C109.002 2.70703 109.107 2.57422 109.221 2.46875C109.338 2.36328 109.463 2.31055 109.596 2.31055C109.705 2.31055 109.793 2.33594 109.859 2.38672C109.926 2.43359 109.977 2.49414 110.012 2.56836C110.051 2.63867 110.076 2.71875 110.088 2.80859C110.104 2.89844 110.111 2.98438 110.111 3.06641C110.111 3.11328 110.109 3.1582 110.105 3.20117C110.105 3.24414 110.104 3.28125 110.1 3.3125L108.992 11.9785L114.471 3.74023C114.482 3.64258 114.502 3.53906 114.529 3.42969C114.561 3.31641 114.604 3.21289 114.658 3.11914C114.717 3.02148 114.789 2.94141 114.875 2.87891C114.965 2.81641 115.074 2.78516 115.203 2.78516C115.336 2.78516 115.439 2.79688 115.514 2.82031C115.592 2.83984 115.65 2.86523 115.689 2.89648C115.729 2.92773 115.752 2.96484 115.76 3.00781C115.771 3.04688 115.777 3.08594 115.777 3.125C115.777 3.36328 115.742 3.67578 115.672 4.0625C115.605 4.44922 115.516 4.88281 115.402 5.36328C115.289 5.83984 115.16 6.34766 115.016 6.88672C114.871 7.42578 114.725 7.9668 114.576 8.50977C114.428 9.04883 114.281 9.57617 114.137 10.0918C113.992 10.6035 113.863 11.0723 113.75 11.498C113.637 11.9238 113.545 12.291 113.475 12.5996C113.408 12.9082 113.375 13.1289 113.375 13.2617C113.375 13.3086 113.377 13.3613 113.381 13.4199C113.389 13.4785 113.404 13.5332 113.428 13.584C113.451 13.6309 113.486 13.6719 113.533 13.707C113.58 13.7422 113.645 13.7598 113.727 13.7598C113.805 13.7598 113.902 13.7402 114.02 13.7012C114.141 13.6582 114.291 13.5859 114.471 13.4844C115.076 13.1406 115.646 12.8105 116.182 12.4941C116.717 12.1738 117.213 11.873 117.67 11.5918ZM99.9336 15.5059C100.141 15.5059 100.387 15.4316 100.672 15.2832C100.961 15.1348 101.273 14.9277 101.609 14.6621C101.945 14.4004 102.299 14.0879 102.67 13.7246C103.041 13.3574 103.414 12.959 103.789 12.5293C103.637 12.416 103.443 12.3262 103.209 12.2598C102.979 12.1934 102.705 12.1602 102.389 12.1602C102.115 12.1602 101.832 12.1836 101.539 12.2305C101.246 12.2773 100.957 12.3457 100.672 12.4355C100.391 12.5254 100.123 12.6367 99.8691 12.7695C99.6152 12.8984 99.3926 13.0508 99.2012 13.2266C99.0137 13.3984 98.8633 13.5918 98.75 13.8066C98.6367 14.0176 98.5801 14.248 98.5801 14.498C98.5801 14.8496 98.7012 15.1055 98.9434 15.2656C99.1855 15.4258 99.5156 15.5059 99.9336 15.5059ZM117.676 12.0781C117.648 12.0938 117.623 12.1016 117.6 12.1016C117.561 12.1016 117.531 12.0859 117.512 12.0547C117.492 12.0195 117.482 11.9766 117.482 11.9258C117.482 11.8711 117.496 11.8125 117.523 11.75C117.551 11.6875 117.602 11.6348 117.676 11.5918L119.844 10.3145C120.113 10.1582 120.4 10.0234 120.705 9.91016C121.01 9.79688 121.318 9.70508 121.631 9.63477C121.947 9.56055 122.26 9.50781 122.568 9.47656C122.877 9.44141 123.168 9.42383 123.441 9.42383C123.598 9.42383 123.744 9.43555 123.881 9.45898C124.018 9.47852 124.135 9.50977 124.232 9.55273C124.334 9.5918 124.412 9.64062 124.467 9.69922C124.525 9.75781 124.555 9.82422 124.555 9.89844C124.555 9.95312 124.535 9.99219 124.496 10.0156C124.457 10.0391 124.41 10.0566 124.355 10.0684C124.305 10.0762 124.25 10.082 124.191 10.0859C124.137 10.0898 124.094 10.0996 124.062 10.1152C124.039 10.1895 124.002 10.3047 123.951 10.4609C123.9 10.6133 123.85 10.7715 123.799 10.9355C123.748 11.0957 123.701 11.2402 123.658 11.3691C123.619 11.4941 123.598 11.5664 123.594 11.5859C123.543 11.75 123.473 11.959 123.383 12.2129C123.297 12.4629 123.201 12.7988 123.096 13.2207C123.1 13.2207 123.143 13.1992 123.225 13.1562C123.311 13.1094 123.42 13.0488 123.553 12.9746C123.689 12.9004 123.844 12.8145 124.016 12.7168C124.188 12.6191 124.365 12.5195 124.549 12.418L125.949 11.5918C126.004 11.5605 126.051 11.5449 126.09 11.5449C126.133 11.5449 126.166 11.5605 126.189 11.5918C126.213 11.6191 126.225 11.6543 126.225 11.6973C126.225 11.752 126.203 11.8164 126.16 11.8906C126.117 11.9609 126.047 12.0234 125.949 12.0781L122.832 13.9062C122.754 13.9531 122.682 13.9863 122.615 14.0059C122.549 14.0254 122.488 14.0352 122.434 14.0352C122.355 14.0352 122.289 14.0176 122.234 13.9824C122.18 13.9473 122.135 13.8984 122.1 13.8359C122.064 13.7734 122.037 13.7031 122.018 13.625C122.002 13.543 121.994 13.457 121.994 13.3672C121.994 13.2695 122.004 13.1719 122.023 13.0742C122.043 12.9766 122.068 12.8828 122.1 12.793C121.986 13.0156 121.854 13.209 121.701 13.373C121.553 13.5371 121.393 13.6758 121.221 13.7891C121.053 13.8984 120.879 13.9805 120.699 14.0352C120.52 14.0898 120.344 14.1172 120.172 14.1172C120 14.1172 119.838 14.0898 119.686 14.0352C119.533 13.9805 119.398 13.9004 119.281 13.7949C119.168 13.6855 119.078 13.5508 119.012 13.3906C118.945 13.2305 118.912 13.0449 118.912 12.834C118.912 12.709 118.924 12.5703 118.947 12.418C118.975 12.2656 119.01 12.1113 119.053 11.9551C119.096 11.7988 119.145 11.6465 119.199 11.498C119.254 11.3457 119.311 11.207 119.369 11.082L117.676 12.0781ZM123.002 9.92188C122.689 9.92188 122.391 9.97461 122.105 10.0801C121.82 10.1855 121.555 10.3242 121.309 10.4961C121.066 10.668 120.846 10.8652 120.646 11.0879C120.451 11.3066 120.283 11.5332 120.143 11.7676C120.006 11.998 119.898 12.2266 119.82 12.4531C119.746 12.6797 119.709 12.8828 119.709 13.0625C119.709 13.2617 119.752 13.4238 119.838 13.5488C119.928 13.6699 120.072 13.7305 120.271 13.7305C120.389 13.7305 120.516 13.6953 120.652 13.625C120.793 13.5508 120.934 13.4551 121.074 13.3379C121.219 13.2168 121.359 13.082 121.496 12.9336C121.637 12.7812 121.766 12.6289 121.883 12.4766C122 12.3203 122.102 12.1699 122.188 12.0254C122.277 11.877 122.342 11.748 122.381 11.6387L123.002 9.92188ZM132.611 11.5918C132.639 11.5762 132.668 11.5684 132.699 11.5684C132.746 11.5684 132.789 11.584 132.828 11.6152C132.867 11.6465 132.887 11.6895 132.887 11.7441C132.887 11.791 132.865 11.8438 132.822 11.9023C132.783 11.9609 132.713 12.0195 132.611 12.0781C132.412 12.1914 132.193 12.3184 131.955 12.459C131.721 12.5957 131.479 12.7363 131.229 12.8809C130.982 13.0254 130.736 13.168 130.49 13.3086C130.244 13.4492 130.01 13.5781 129.787 13.6953C129.568 13.8125 129.369 13.9141 129.189 14C129.01 14.082 128.863 14.1387 128.75 14.1699C128.688 14.1895 128.629 14.2012 128.574 14.2051C128.523 14.2129 128.477 14.2168 128.434 14.2168C128.27 14.2168 128.135 14.1758 128.029 14.0938C127.924 14.0117 127.84 13.9023 127.777 13.7656C127.719 13.625 127.678 13.4629 127.654 13.2793C127.631 13.0918 127.619 12.8945 127.619 12.6875C127.619 12.4062 127.633 12.1211 127.66 11.832C127.688 11.5391 127.713 11.2695 127.736 11.0234L126.465 11.7734L125.949 12.0781C125.922 12.0938 125.891 12.1016 125.855 12.1016C125.809 12.1016 125.768 12.0859 125.732 12.0547C125.697 12.0234 125.68 11.9805 125.68 11.9258C125.68 11.8789 125.699 11.8281 125.738 11.7734C125.777 11.7148 125.848 11.6543 125.949 11.5918L127.771 10.5195C127.959 9.87109 128.152 9.27539 128.352 8.73242C128.551 8.18945 128.768 7.69922 129.002 7.26172C129.236 6.82422 129.492 6.43945 129.77 6.10742C130.047 5.77539 130.357 5.5 130.701 5.28125C131.045 5.05859 131.426 4.89258 131.844 4.7832C132.266 4.66992 132.734 4.61328 133.25 4.61328C133.508 4.61328 133.725 4.63672 133.9 4.68359C134.076 4.72656 134.219 4.79102 134.328 4.87695C134.441 4.95898 134.521 5.05859 134.568 5.17578C134.619 5.29297 134.645 5.42188 134.645 5.5625C134.645 5.73828 134.586 5.92773 134.469 6.13086C134.352 6.33008 134.193 6.53711 133.994 6.75195C133.795 6.9668 133.564 7.18555 133.303 7.4082C133.041 7.62695 132.766 7.84375 132.477 8.05859C132.188 8.27344 131.893 8.48047 131.592 8.67969C131.295 8.87891 131.01 9.06445 130.736 9.23633C130.467 9.4082 130.217 9.5625 129.986 9.69922C129.76 9.83594 129.574 9.94727 129.43 10.0332C129.359 10.2793 129.289 10.5371 129.219 10.8066C129.148 11.0762 129.084 11.3477 129.025 11.6211C128.971 11.8945 128.926 12.166 128.891 12.4355C128.855 12.7012 128.838 12.9512 128.838 13.1855C128.838 13.2793 128.846 13.3594 128.861 13.4258C128.881 13.4922 128.912 13.5254 128.955 13.5254C129.029 13.5254 129.139 13.498 129.283 13.4434C129.432 13.3848 129.602 13.3066 129.793 13.209C129.984 13.1113 130.193 13 130.42 12.875C130.65 12.7461 130.889 12.6094 131.135 12.4648C131.381 12.3203 131.629 12.1738 131.879 12.0254C132.129 11.877 132.373 11.7324 132.611 11.5918ZM129.512 9.49414C129.746 9.36914 130.023 9.20508 130.344 9.00195C130.668 8.79883 131.002 8.57617 131.346 8.33398C131.693 8.08789 132.035 7.83008 132.371 7.56055C132.707 7.29102 133.008 7.02734 133.273 6.76953C133.543 6.51172 133.76 6.26758 133.924 6.03711C134.088 5.80273 134.17 5.59961 134.17 5.42773C134.17 5.2832 134.094 5.16797 133.941 5.08203C133.793 4.99219 133.549 4.94727 133.209 4.94727C132.674 4.94727 132.211 5.04297 131.82 5.23438C131.43 5.42578 131.09 5.71094 130.801 6.08984C130.516 6.46875 130.27 6.94336 130.062 7.51367C129.859 8.08008 129.676 8.74023 129.512 9.49414ZM139.279 11.5918C139.307 11.5762 139.336 11.5684 139.367 11.5684C139.414 11.5684 139.457 11.584 139.496 11.6152C139.535 11.6465 139.555 11.6895 139.555 11.7441C139.555 11.791 139.533 11.8438 139.49 11.9023C139.451 11.9609 139.381 12.0195 139.279 12.0781C139.08 12.1914 138.861 12.3184 138.623 12.459C138.389 12.5957 138.146 12.7363 137.896 12.8809C137.65 13.0254 137.404 13.168 137.158 13.3086C136.912 13.4492 136.678 13.5781 136.455 13.6953C136.236 13.8125 136.037 13.9141 135.857 14C135.678 14.082 135.531 14.1387 135.418 14.1699C135.355 14.1895 135.297 14.2012 135.242 14.2051C135.191 14.2129 135.145 14.2168 135.102 14.2168C134.938 14.2168 134.803 14.1758 134.697 14.0938C134.592 14.0117 134.508 13.9023 134.445 13.7656C134.387 13.625 134.346 13.4629 134.322 13.2793C134.299 13.0918 134.287 12.8945 134.287 12.6875C134.287 12.4062 134.301 12.1211 134.328 11.832C134.355 11.5391 134.381 11.2695 134.404 11.0234L133.133 11.7734L132.617 12.0781C132.59 12.0938 132.559 12.1016 132.523 12.1016C132.477 12.1016 132.436 12.0859 132.4 12.0547C132.365 12.0234 132.348 11.9805 132.348 11.9258C132.348 11.8789 132.367 11.8281 132.406 11.7734C132.445 11.7148 132.516 11.6543 132.617 11.5918L134.439 10.5195C134.627 9.87109 134.82 9.27539 135.02 8.73242C135.219 8.18945 135.436 7.69922 135.67 7.26172C135.904 6.82422 136.16 6.43945 136.438 6.10742C136.715 5.77539 137.025 5.5 137.369 5.28125C137.713 5.05859 138.094 4.89258 138.512 4.7832C138.934 4.66992 139.402 4.61328 139.918 4.61328C140.176 4.61328 140.393 4.63672 140.568 4.68359C140.744 4.72656 140.887 4.79102 140.996 4.87695C141.109 4.95898 141.189 5.05859 141.236 5.17578C141.287 5.29297 141.312 5.42188 141.312 5.5625C141.312 5.73828 141.254 5.92773 141.137 6.13086C141.02 6.33008 140.861 6.53711 140.662 6.75195C140.463 6.9668 140.232 7.18555 139.971 7.4082C139.709 7.62695 139.434 7.84375 139.145 8.05859C138.855 8.27344 138.561 8.48047 138.26 8.67969C137.963 8.87891 137.678 9.06445 137.404 9.23633C137.135 9.4082 136.885 9.5625 136.654 9.69922C136.428 9.83594 136.242 9.94727 136.098 10.0332C136.027 10.2793 135.957 10.5371 135.887 10.8066C135.816 11.0762 135.752 11.3477 135.693 11.6211C135.639 11.8945 135.594 12.166 135.559 12.4355C135.523 12.7012 135.506 12.9512 135.506 13.1855C135.506 13.2793 135.514 13.3594 135.529 13.4258C135.549 13.4922 135.58 13.5254 135.623 13.5254C135.697 13.5254 135.807 13.498 135.951 13.4434C136.1 13.3848 136.27 13.3066 136.461 13.209C136.652 13.1113 136.861 13 137.088 12.875C137.318 12.7461 137.557 12.6094 137.803 12.4648C138.049 12.3203 138.297 12.1738 138.547 12.0254C138.797 11.877 139.041 11.7324 139.279 11.5918ZM136.18 9.49414C136.414 9.36914 136.691 9.20508 137.012 9.00195C137.336 8.79883 137.67 8.57617 138.014 8.33398C138.361 8.08789 138.703 7.83008 139.039 7.56055C139.375 7.29102 139.676 7.02734 139.941 6.76953C140.211 6.51172 140.428 6.26758 140.592 6.03711C140.756 5.80273 140.838 5.59961 140.838 5.42773C140.838 5.2832 140.762 5.16797 140.609 5.08203C140.461 4.99219 140.217 4.94727 139.877 4.94727C139.342 4.94727 138.879 5.04297 138.488 5.23438C138.098 5.42578 137.758 5.71094 137.469 6.08984C137.184 6.46875 136.938 6.94336 136.73 7.51367C136.527 8.08008 136.344 8.74023 136.18 9.49414Z" fill="black"/>
</svg>
